<svg width="107" height="25" viewBox="0 0 107 25" fill="none" xmlns="http://www.w3.org/2000/svg">
<g clip-path="url(#clip0_1_1333)">
<mask id="mask0_1_1333" style="mask-type:luminance" maskUnits="userSpaceOnUse" x="0" y="0" width="107" height="25">
<path d="M106.281 0.550003H0V24.55H106.281V0.550003Z" fill="white"/>
</mask>
<g mask="url(#mask0_1_1333)">
<path d="M89.0183 10.6033C87.402 10.9051 85.8393 11.3578 84.3438 11.9413C86.5737 16.8272 89.8667 21.1295 93.9243 24.55C95.1583 23.5104 96.3186 22.3904 97.4017 21.2C95.2254 19.426 93.2939 17.3604 91.6641 15.0667C92.4086 14.9895 93.1631 14.9493 93.9243 14.9493C96.4762 14.9493 98.9242 15.3919 101.198 16.2068C102.056 14.8453 102.827 13.4202 103.505 11.9447C100.534 10.7878 97.3045 10.1506 93.9243 10.1506C92.2443 10.1473 90.6078 10.3049 89.0183 10.6033Z" fill="#D32B4E"/>
<path d="M93.923 0.550003C91.2772 0.550003 88.6984 0.835039 86.2136 1.37828C84.6208 1.72703 83.0682 2.17973 81.5625 2.72968C81.8207 4.34265 82.1829 5.91873 82.649 7.45122C84.1312 6.87779 85.6637 6.41167 87.2464 6.06963C89.3993 5.60016 91.6326 5.35201 93.923 5.35201C97.9001 5.35201 101.699 6.09646 105.197 7.45122C105.66 5.91873 106.025 4.34265 106.283 2.72968C102.43 1.31792 98.2656 0.550003 93.923 0.550003Z" fill="#D32B4E"/>
<path d="M74.9456 9.09102C72.1992 9.09102 69.9625 11.3277 69.9625 14.0741V15.952H66.7332C65.8647 15.952 65.1571 15.2478 65.1571 14.3759V11.9313C65.1571 11.9146 65.1538 11.8944 65.1504 11.8777C65.1471 11.8609 65.1404 11.8441 65.1336 11.8274C65.1202 11.7972 65.1001 11.767 65.0766 11.7435C65.0297 11.6966 64.9626 11.6664 64.8888 11.6664H61.9882C61.9144 11.6664 61.8507 11.6966 61.8004 11.7435C61.7769 11.767 61.7568 11.7972 61.7434 11.8274C61.7367 11.8441 61.73 11.8609 61.7266 11.8777C61.7233 11.8944 61.7199 11.9112 61.7199 11.9313V14.3759C61.7199 15.2444 61.0157 15.952 60.1438 15.952H58.4236H57.4243C56.5557 15.952 55.8482 15.2478 55.8482 14.3759V7.64573C55.8482 7.57195 55.818 7.50824 55.7711 7.45794C55.7241 7.41099 55.657 7.38081 55.5833 7.38081H52.6826C52.6088 7.38081 52.5451 7.41099 52.4948 7.45794C52.4479 7.50488 52.4177 7.57195 52.4177 7.64573V14.3759C52.4177 15.2444 51.7135 15.952 50.8416 15.952H49.0576C48.5278 15.952 48.0315 15.7474 47.6593 15.3719L42.4348 10.1473L42.371 10.0836C41.0398 8.75233 38.8735 8.75233 37.5422 10.0836L36.8279 10.7979L28.2266 19.4026H32.2036C32.7637 19.4026 33.3002 19.1813 33.6959 18.7856L35.3424 17.1391L36.6703 18.467C38.6119 20.4086 41.7741 20.4086 43.7157 18.467C44.098 18.0847 44.4065 17.6522 44.6379 17.1927L45.2415 17.7963C46.2643 18.8191 47.6224 19.3791 49.0677 19.3791H50.8517C52.1125 19.3791 53.2628 18.913 54.1413 18.1451C55.0199 18.913 56.1701 19.3791 57.431 19.3791H58.4303H60.1506C61.4114 19.3791 62.5616 18.913 63.4402 18.1451C64.3188 18.913 65.469 19.3791 66.7298 19.3791H69.9591H70.9484H76.5082C78.3928 19.3791 79.922 17.8466 79.922 15.9654V14.0741C79.9287 11.3277 77.692 9.09102 74.9456 9.09102ZM41.2711 16.0593C40.6642 16.6461 39.6951 16.6394 39.0948 16.0392L37.7669 14.7113L39.5877 12.8904C39.7923 12.6858 40.1276 12.6858 40.3355 12.8904L41.2611 13.8159C41.8747 14.4296 41.8949 15.4557 41.2711 16.0593ZM76.4982 15.4222C76.4982 15.7139 76.2635 15.9486 75.9717 15.9486H73.3963V14.0708C73.3963 13.2224 74.0771 12.5316 74.9221 12.5182C75.7906 12.5047 76.5015 13.2425 76.5015 14.111V15.4222H76.4982Z" fill="white"/>
<path d="M24.4862 15.952C23.6177 15.952 22.9102 15.2478 22.9102 14.376V11.9314C22.9102 11.7872 22.7928 11.6665 22.6452 11.6665H19.7446C19.6004 11.6665 19.4797 11.7838 19.4797 11.9314V14.376C19.4797 15.2445 18.7755 15.952 17.9036 15.952H11.2103H8.16879H5.00321C4.13469 15.952 3.42713 15.2478 3.42713 14.376V11.9314C3.42713 11.7872 3.30977 11.6665 3.16222 11.6665H0.264915C0.117368 11.6665 0 11.7838 0 11.9314V14.376C0 17.1391 2.24004 19.3825 5.00657 19.3825H8.17214H11.2136H17.9069C19.1678 19.3825 20.318 18.9164 21.1966 18.1485C22.0752 18.9164 23.2254 19.3825 24.4862 19.3825H26.3406L29.7711 15.952H24.4862Z" fill="white"/>
<path d="M73.4993 7.3774H76.4033C76.5475 7.3774 76.6682 7.26003 76.6682 7.11248V4.20847C76.6682 4.06428 76.5508 3.94355 76.4033 3.94355H73.4993C73.3551 3.94355 73.2344 4.06092 73.2344 4.20847V7.11248C73.2344 7.25667 73.3551 7.3774 73.4993 7.3774Z" fill="white"/>
<path d="M26.6087 10.8112H29.5127C29.6569 10.8112 29.7776 10.6939 29.7776 10.5463V7.64232C29.7776 7.49812 29.6602 7.3774 29.5127 7.3774H26.6087C26.4645 7.3774 26.3438 7.49477 26.3438 7.64232V10.5463C26.3438 10.6939 26.4611 10.8112 26.6087 10.8112Z" fill="white"/>
<path d="M8.28835 10.8112H11.4539H14.6195C14.7637 10.8112 14.8844 10.6939 14.8844 10.5463V7.64232C14.8844 7.49812 14.767 7.3774 14.6195 7.3774H11.4539H8.28835C8.14416 7.3774 8.02344 7.49477 8.02344 7.64232V10.5463C8.02344 10.6939 8.1408 10.8112 8.28835 10.8112Z" fill="white"/>
<path d="M61.9632 21.0927H58.7977H55.6321C55.4879 21.0927 55.3672 21.2101 55.3672 21.3576V24.2617C55.3672 24.4058 55.4846 24.5266 55.6321 24.5266H58.7977H61.9632C62.1074 24.5266 62.2282 24.4092 62.2282 24.2617V21.3576C62.2248 21.2101 62.1074 21.0927 61.9632 21.0927Z" fill="white"/>
</g>
</g>
<defs>
<clipPath id="clip0_1_1333">
<rect width="107" height="24" fill="white" transform="translate(0 0.550003)"/>
</clipPath>
</defs>
</svg>
