<svg width="17" height="17" viewBox="0 0 17 17" fill="none" xmlns="http://www.w3.org/2000/svg">
<g clip-path="url(#clip0_1_29)">
<path d="M2.68298 2.56298C-0.441037 5.68699 -0.441037 10.753 2.68298 13.877C5.80699 17.001 10.873 17.001 13.997 13.877C17.121 10.753 17.121 5.68699 13.997 2.56298C10.873 -0.561033 5.80699 -0.561033 2.68298 2.56298ZM8.66081 3.57617C9.33628 3.57617 9.87665 4.13343 9.87665 4.80889C9.87665 5.48435 9.31939 6.04161 8.66081 6.04161C7.98535 6.04161 7.4281 5.48435 7.4281 4.792C7.4281 4.11654 7.98535 3.57617 8.66081 3.57617ZM10.4002 11.8337C10.3664 11.935 10.2988 12.0532 10.2313 12.1208C9.79221 12.5767 9.25184 12.8469 8.61015 12.8469C8.3062 12.8469 8.01912 12.8469 7.71517 12.7963C7.22546 12.7287 6.60066 12.1208 6.68509 11.4791C6.75264 11.0401 6.82018 10.601 6.88773 10.1619C7.02282 9.40203 7.15791 8.62525 7.293 7.86535C7.293 7.81469 7.30989 7.76403 7.30989 7.71337C7.30989 7.39253 7.20857 7.27432 6.88773 7.24055C6.75264 7.22366 6.61754 7.20678 6.48245 7.173C6.33047 7.12234 6.24604 6.98725 6.26293 6.86905C6.27981 6.73395 6.36424 6.64952 6.53311 6.61575C6.61754 6.59886 6.71886 6.59886 6.82018 6.59886C7.19169 6.59886 7.56319 6.59886 7.95158 6.59886C8.35686 6.59886 8.74525 6.59886 9.15052 6.59886C9.4376 6.59886 9.60646 6.73395 9.60646 7.02103C9.60646 7.25744 9.57269 7.49385 9.52203 7.73026C9.37005 8.60836 9.20118 9.46957 9.04921 10.3477C8.99855 10.6348 8.93099 10.9218 8.89723 11.2089C8.88034 11.344 8.89723 11.496 8.931 11.6311C8.98166 11.8168 9.11675 11.9182 9.3025 11.9013C9.45448 11.8844 9.60646 11.8337 9.75844 11.7662C9.87665 11.7155 9.97797 11.6311 10.0962 11.5973C10.2988 11.5298 10.4508 11.648 10.4002 11.8337Z" fill="white"/>
</g>
<defs>
<clipPath id="clip0_1_29">
<rect width="16" height="16" fill="white" transform="translate(0.339966 0.219971)"/>
</clipPath>
</defs>
</svg>
